<svg width="14" height="14" fill="none" xmlns="http://www.w3.org/2000/svg"><path fill-rule="evenodd" clip-rule="evenodd" d="M14 6.563A7 7 0 007.437.014V0h-.875v.015A7 7 0 00.016 6.562H0v.875h.015A7 7 0 006.563 14h.875A7 7 0 0014 7.437v-.875zm-3.057 0a11.883 11.883 0 00-.291-2.302 8.457 8.457 0 001.484-.63c.578.875.92 1.885.992 2.932h-2.185zm-1.39-2.917a7.078 7.078 0 00-.517-1.167H9.02C8.566 1.67 8.006 1.137 7.452.954v2.96a11.25 11.25 0 002.1-.268zM6.562.954v2.969a11.224 11.224 0 01-2.1-.268c.136-.404.309-.795.516-1.167.455-.82 1.015-1.35 1.583-1.534zm0 5.609V4.798a12.126 12.126 0 01-2.357-.303 10.827 10.827 0 00-.269 2.067h2.626zm0 .875v1.808a11.99 11.99 0 00-2.334.291 10.76 10.76 0 01-.292-2.108l2.626.008zm0 5.596v-2.916a11.1 11.1 0 00-2.086.257c.134.392.302.771.502 1.134.455.81 1.015 1.342 1.583 1.525zm.875 0v-2.916c.701.024 1.4.113 2.085.265a6.922 6.922 0 01-.502 1.135c-.455.814-1.015 1.345-1.584 1.528v-.011zm0-5.597v1.809c.785.025 1.566.125 2.333.3a10.71 10.71 0 00.291-2.108H7.438zm0-.877V4.798a12.16 12.16 0 002.333-.292c.156.68.245 1.372.268 2.068l-2.6-.014zm2.96-3.136a7.743 7.743 0 001.167-.493A6.126 6.126 0 009.322 1.33c.473.633.837 1.34 1.076 2.094zM4.693 1.33a7.067 7.067 0 00-1.076 2.094 7.746 7.746 0 01-1.182-.493A6.125 6.125 0 014.693 1.33zM3.375 4.261a8.456 8.456 0 01-1.485-.63 6.125 6.125 0 00-.995 2.932h2.188c.02-.775.118-1.546.292-2.302zm-.318 3.176c.025.787.13 1.569.315 2.334a8.692 8.692 0 00-1.48.624 6.078 6.078 0 01-.994-2.957h2.159zm.571 3.18c-.4.128-.791.29-1.166.48a6.1 6.1 0 002.23 1.561 7.048 7.048 0 01-1.064-2.041zm5.68 2.053a7.047 7.047 0 001.064-2.042c.401.13.792.291 1.166.484a6.142 6.142 0 01-2.23 1.558zm1.306-2.89a8.54 8.54 0 011.476.624c.59-.88.939-1.9 1.012-2.958h-2.173a11.577 11.577 0 01-.315 2.334z" fill="#A3A3A3"/></svg>